SplineFontDB: 3.0
FontName: Topmarks-Book
FullName: Topmarks Book
FamilyName: Topmarks
Weight: Medium
Copyright: Copyright (c) 2012-13 by vernon adams. All rights reserved.
Version: 
ItalicAngle: 0
UnderlinePosition: 0
UnderlineWidth: 0
Ascent: 1638
Descent: 410
UFOAscent: 1638
UFODescent: -410
LayerCount: 2
Layer: 0 0 "Back"  1
Layer: 1 0 "Fore"  0
OS2Version: 0
OS2_WeightWidthSlopeOnly: 0
OS2_UseTypoMetrics: 0
CreationTime: 1363901687
ModificationTime: 1363901820
PfmFamily: 0
TTFWeight: 400
TTFWidth: 5
LineGap: 0
VLineGap: 0
OS2TypoAscent: 0
OS2TypoAOffset: 1
OS2TypoDescent: 0
OS2TypoDOffset: 1
OS2TypoLinegap: 0
OS2WinAscent: 1638
OS2WinAOffset: 0
OS2WinDescent: 410
OS2WinDOffset: 0
HheadAscent: 0
HheadAOffset: 1
HheadDescent: 0
HheadDOffset: 1
OS2Vendor: 'newt'
Lookup: 258 0 0 "'kern' Horizontal Kerning in Latin lookup 0"  {"'kern' Horizontal Kerning in Latin lookup 0 subtable"  } ['kern' ('latn' <'dflt' > ) ]
Lookup: 258 0 0 "kernHorizontalKerninglookup1"  {"kernHorizontalKerninglookup1 per glyph data 0"  "kernHorizontalKerninglookup1 kerning class 1"  } ['kern' ('latn' <'dflt' > 'DFLT' <'dflt' > ) ]
Lookup: 260 0 0 "markMarkPositioninglookup0"  {"markMarkPositioninglookup0 subtable"  } ['mark' ('latn' <'dflt' > 'grek' <'dflt' > 'DFLT' <'dflt' > ) ]
DEI: 91125
KernClass2: 15 22 "kernHorizontalKerninglookup1 kerning class 1" 
 89 A Aacute Abreve Acircumflex Adieresis Agrave Amacron Aogonek Aring Atilde uni0200 uni0202
 1 D
 1 F
 14 G Gcommaaccent
 1 K
 1 L
 1 P
 9 T uni021A
 1 V
 1 W
 18 Y Yacute Ydieresis
 24 c cacute ccaron ccedilla
 60 o oacute ocircumflex odieresis ograve otilde uni020D uni020F
 37 r rcaron rcommaaccent uni0211 uni0213
 89 A Aacute Abreve Acircumflex Adieresis Agrave Amacron Aogonek Aring Atilde uni0200 uni0202
 24 C Cacute Ccaron Ccedilla
 14 G Gcommaaccent
 60 O Oacute Ocircumflex Odieresis Ograve Otilde uni020C uni020E
 9 T uni021A
 1 V
 1 W
 18 Y Yacute Ydieresis

StartChar: A
Encoding: 65 65 0
Width: 1385
VWidth: 0
GlyphClass: 2
Flags: HW
HStem: 0 21<34 220 220 220 1160 1351 1351 1351> 395 136<421 421 421 958> 1436 20<603 781 603 603>
AnchorPoint: "top" 693 1456 basechar 0
AnchorPoint: "bottom" 736 0 basechar 0
AnchorPoint: "ogonek" 1260 0 basechar 0
LayerCount: 2
UndoRedoHistory
Layer: 1
Undoes
EndUndoes
Redoes
EndRedoes
EndUndoRedoHistory
Fore
SplineSet
34 0 m 1
 603 1456 l 1
 781 1456 l 1
 1351 0 l 1
 1160 0 l 1
 1010 395 l 1
 369 395 l 1
 220 0 l 1
 34 0 l 1
421 531 m 1
 958 531 l 1
 788 997 l 1
 692 1271 l 1
 590 996 l 1
 421 531 l 1
EndSplineSet
EndChar

StartChar: B
Encoding: 66 66 1
Width: 1286
VWidth: 0
GlyphClass: 2
Flags: HW
HStem: 0 138<362 618 618 624> 684 141<362 545 545 574 362 545> 1318 138<362 561 362 362>
VStem: 174 172 907 181 972 182
AnchorPoint: "top" 700 1456 basechar 0
AnchorPoint: "bottom" 676 0 basechar 0
LayerCount: 2
UndoRedoHistory
Layer: 1
Undoes
EndUndoes
Redoes
EndRedoes
EndUndoRedoHistory
Fore
SplineSet
190 0 m 1
 190 1456 l 1
 561 1456 l 2
 921 1456 1104 1357 1104 1105 c 0
 1104 918 1029 823 871 769 c 1
 1067 730 1170 625 1170 403 c 0
 1170 114 957 0 624 0 c 2
 190 0 l 1
362 138 m 1
 618 138 l 2
 875 138 988 214 988 406 c 0
 988 602 871 684 574 684 c 2
 362 684 l 1
 362 138 l 1
362 825 m 1
 545 825 l 2
 816 825 923 898 923 1077 c 0
 923 1250 823 1318 561 1318 c 2
 362 1318 l 1
 362 825 l 1
EndSplineSet
EndChar

StartChar: C
Encoding: 67 67 2
Width: 1360
VWidth: 0
GlyphClass: 2
Flags: HW
HStem: -22 152<646.5 885.5 646.5 891.5> 1331 152<648.5 880.5>
VStem: 112 183<546 890 546 941.5>
AnchorPoint: "top" 790 1456 basechar 0
AnchorPoint: "bottom" 826 0 basechar 0
LayerCount: 2
UndoRedoHistory
Layer: 1
Undoes
EndUndoes
Redoes
EndRedoes
EndUndoRedoHistory
Fore
SplineSet
800 -22 m 0
 405 -22 112 260 112 722 c 0
 112 1161 390 1483 798 1483 c 0
 993 1483 1133 1425 1251 1332 c 1
 1173 1210 l 1
 1069 1288 945 1331 816 1331 c 0
 481 1331 295 1058 295 722 c 0
 295 370 486 130 807 130 c 0
 964 130 1098 178 1213 271 c 1
 1273 129 l 1
 1144 29 983 -22 800 -22 c 0
EndSplineSet
EndChar

StartChar: D
Encoding: 68 68 3
Width: 1503
VWidth: 0
GlyphClass: 2
Flags: HW
HStem: 0 138<362 597> 1318 138<362 499 499 519 362 362>
VStem: 174 172 1194 182
AnchorPoint: "top" 700 1456 basechar 0
AnchorPoint: "bottom" 676 0 basechar 0
LayerCount: 2
UndoRedoHistory
Layer: 1
Undoes
EndUndoes
Redoes
EndRedoes
EndUndoRedoHistory
Fore
SplineSet
362 138 m 1
 613 138 l 2
 983 138 1210 334 1210 721 c 0
 1210 1178 951 1318 519 1318 c 2
 362 1318 l 1
 362 138 l 1
190 0 m 1
 190 1456 l 1
 499 1456 l 2
 1025 1456 1392 1273 1392 724 c 0
 1392 241 1063 0 597 0 c 2
 190 0 l 1
EndSplineSet
EndChar

StartChar: E
Encoding: 69 69 4
Width: 1182
VWidth: 0
GlyphClass: 2
Flags: HW
HStem: 0 138<362 1087 362 1087> 672 148<362 999 362 999> 1318 138<362 1037 362 362>
VStem: 174 172
AnchorPoint: "top" 656 1456 basechar 0
AnchorPoint: "bottom" 826 0 basechar 0
AnchorPoint: "ogonek" 850 0 basechar 0
LayerCount: 2
UndoRedoHistory
Layer: 1
Undoes
EndUndoes
Redoes
EndRedoes
EndUndoRedoHistory
Fore
SplineSet
190 0 m 1
 190 1456 l 1
 1037 1456 l 1
 1037 1318 l 1
 362 1318 l 1
 362 820 l 1
 999 820 l 1
 999 672 l 1
 362 672 l 1
 362 138 l 1
 1087 138 l 1
 1087 0 l 1
 190 0 l 1
EndSplineSet
EndChar

StartChar: F
Encoding: 70 70 5
Width: 1101
VWidth: 0
GlyphClass: 2
Flags: HW
HStem: 0 21<190 190 190 362> 667 148<362 982 362 982> 1318 138<362 1016 362 362>
VStem: 174 172
AnchorPoint: "top" 700 1456 basechar 0
AnchorPoint: "bottom" 676 0 basechar 0
LayerCount: 2
UndoRedoHistory
Layer: 1
Undoes
EndUndoes
Redoes
EndRedoes
EndUndoRedoHistory
Fore
SplineSet
190 0 m 1
 190 1456 l 1
 1016 1456 l 1
 1016 1318 l 1
 362 1318 l 1
 362 815 l 1
 982 815 l 1
 982 667 l 1
 362 667 l 1
 362 0 l 1
 190 0 l 1
EndSplineSet
EndChar

StartChar: G
Encoding: 71 71 6
Width: 1476
VWidth: 0
GlyphClass: 2
Flags: HW
HStem: -22 152<658 894 658 918.5> 608 149<794 1141 794 1313> 1331 152<658.5 912.5>
VStem: 112 178<529 891.5 529 933> 1141 172<178 608 608 608>
AnchorPoint: "top" 790 1456 basechar 0
AnchorPoint: "bottom" 826 0 basechar 0
LayerCount: 2
UndoRedoHistory
Layer: 1
Undoes
EndUndoes
Redoes
EndRedoes
EndUndoRedoHistory
Fore
SplineSet
823 -22 m 0
 377 -22 112 239 112 701 c 0
 112 1165 388 1483 833 1483 c 0
 1036 1483 1172 1431 1288 1315 c 1
 1216 1198 l 1
 1125 1286 995 1331 830 1331 c 0
 487 1331 290 1069 290 714 c 0
 290 344 480 130 836 130 c 0
 952 130 1055 142 1141 178 c 1
 1141 608 l 1
 794 608 l 1
 794 757 l 1
 1313 757 l 1
 1313 81 l 1
 1168 13 1014 -22 823 -22 c 0
EndSplineSet
EndChar

StartChar: H
Encoding: 72 72 7
Width: 1494
VWidth: 0
GlyphClass: 2
Flags: HW
HStem: 0 21<190 190 190 362 1133 1133 1133 1304> 674 148<362 1133 362 1133> 1436 20<190 362 362 362 1133 1304 1304 1304>
VStem: 174 172 1117 171
AnchorPoint: "top" 734 1456 basechar 0
AnchorPoint: "bottom" 788 0 basechar 0
LayerCount: 2
UndoRedoHistory
Layer: 1
Undoes
EndUndoes
Redoes
EndRedoes
EndUndoRedoHistory
Fore
SplineSet
190 0 m 1
 190 1456 l 1
 362 1456 l 1
 362 822 l 1
 1133 822 l 1
 1133 1456 l 1
 1304 1456 l 1
 1304 0 l 1
 1133 0 l 1
 1133 674 l 1
 362 674 l 1
 362 0 l 1
 190 0 l 1
EndSplineSet
EndChar

StartChar: I
Encoding: 73 73 8
Width: 545
VWidth: 0
GlyphClass: 2
Flags: HW
HStem: 0 21<187 187 187 359> 1436 20<187 359 359 359>
VStem: 186 172
AnchorPoint: "top" 289 1456 basechar 0
AnchorPoint: "bottom" 286 1 basechar 0
LayerCount: 2
UndoRedoHistory
Layer: 1
Undoes
EndUndoes
Redoes
EndRedoes
EndUndoRedoHistory
Fore
SplineSet
187 0 m 1
 187 1456 l 1
 359 1456 l 1
 359 0 l 1
 187 0 l 1
EndSplineSet
EndChar

StartChar: J
Encoding: 74 74 9
Width: 1021
VWidth: 0
GlyphClass: 2
Flags: HW
HStem: -207 129 1318 138<164 571 571 571 736 1007 164 1007>
VStem: 571 165<251 284 284 1318>
AnchorPoint: "top" 550 1456 basechar 0
LayerCount: 2
UndoRedoHistory
Layer: 1
Undoes
EndUndoes
Redoes
EndRedoes
EndUndoRedoHistory
Fore
SplineSet
-3 -44 m 1
 97 61 l 1
 157 -20 246 -60 331 -60 c 0
 492 -60 571 26 571 284 c 2
 571 1318 l 1
 164 1318 l 1
 164 1456 l 1
 1007 1456 l 1
 1007 1318 l 1
 736 1318 l 1
 736 251 l 2
 736 -60 582 -207 331 -207 c 0
 208 -207 82 -150 -3 -44 c 1
EndSplineSet
EndChar

StartChar: K
Encoding: 75 75 10
Width: 1234
VWidth: 0
GlyphClass: 2
Flags: HW
HStem: 0 21<190 190 190 362 1013 1013 1013 1231> 1436 20<190 362 362 362 980 1191 1191 1191>
VStem: 174 172
AnchorPoint: "top" 667 1456 basechar 0
AnchorPoint: "bottom" 726 0 basechar 0
LayerCount: 2
UndoRedoHistory
Layer: 1
Undoes
EndUndoes
Redoes
EndRedoes
EndUndoRedoHistory
Fore
SplineSet
190 0 m 1
 190 1456 l 1
 362 1456 l 1
 362 796 l 1
 980 1456 l 1
 1191 1456 l 1
 540 764 l 1
 1231 0 l 1
 1013 0 l 1
 362 725 l 1
 362 0 l 1
 190 0 l 1
EndSplineSet
EndChar

StartChar: L
Encoding: 76 76 11
Width: 1066
VWidth: 0
GlyphClass: 2
Flags: HW
HStem: 0 138<362 1043 362 1043> 1436 20<190 362 362 362>
VStem: 174 172
AnchorPoint: "top" 580 1456 basechar 0
AnchorPoint: "bottom" 696 0 basechar 0
LayerCount: 2
UndoRedoHistory
Layer: 1
Undoes
EndUndoes
Redoes
EndRedoes
EndUndoRedoHistory
Fore
SplineSet
190 0 m 1
 190 1456 l 1
 362 1456 l 1
 362 138 l 1
 1043 138 l 1
 1043 0 l 1
 190 0 l 1
EndSplineSet
EndChar

StartChar: M
Encoding: 77 77 12
Width: 1918
VWidth: 0
GlyphClass: 2
Flags: HW
HStem: 0 21<190 190 190 360 1568 1568 1568 1736> 1436 20<190 416 416 416 1524 1736 1736 1736>
VStem: 174 170 1552 168
AnchorPoint: "top" 970 1456 basechar 0
AnchorPoint: "bottom" 976 0 basechar 0
LayerCount: 2
UndoRedoHistory
Layer: 1
Undoes
EndUndoes
Redoes
EndRedoes
EndUndoRedoHistory
Fore
SplineSet
190 0 m 1
 190 1456 l 1
 416 1456 l 1
 881 579 l 1
 964 420 l 1
 1045 582 l 1
 1524 1456 l 1
 1736 1456 l 1
 1736 0 l 1
 1568 0 l 1
 1568 1251 l 1
 1493 1096 l 1
 1022 220 l 1
 901 220 l 1
 427 1108 l 1
 360 1268 l 1
 360 0 l 1
 190 0 l 1
EndSplineSet
EndChar

StartChar: N
Encoding: 78 78 13
Width: 1559
VWidth: 0
GlyphClass: 2
Flags: HW
HStem: 0 21<190 190 190 362 1170 1170 1170 1377> 1436 20<190 395 395 395 1206 1377 1377 1377>
VStem: 174 172 1190 171
AnchorPoint: "top" 809 1456 basechar 0
AnchorPoint: "bottom" 804 0 basechar 0
LayerCount: 2
UndoRedoHistory
Layer: 1
Undoes
EndUndoes
Redoes
EndRedoes
EndUndoRedoHistory
Fore
SplineSet
190 0 m 1
 190 1456 l 1
 395 1456 l 1
 1131 342 l 1
 1206 215 l 1
 1206 1456 l 1
 1377 1456 l 1
 1377 0 l 1
 1170 0 l 1
 431 1113 l 1
 362 1237 l 1
 362 0 l 1
 190 0 l 1
EndSplineSet
EndChar

StartChar: O
Encoding: 79 79 14
Width: 1618
VWidth: 0
GlyphClass: 2
Flags: HW
HStem: -25 152<675.5 942.5 675.5 1036.5> 1331 152<675.5 942.5>
VStem: 112 184<532 925> 1322 184<532 925 532 928.5>
AnchorPoint: "top" 790 1456 basechar 0
AnchorPoint: "bottom" 826 0 basechar 0
LayerCount: 2
UndoRedoHistory
Layer: 1
Undoes
EndUndoes
Redoes
EndRedoes
EndUndoRedoHistory
Fore
SplineSet
809 127 m 0
 1076 127 1322 330 1322 729 c 0
 1322 1128 1076 1331 809 1331 c 0
 542 1331 296 1128 296 729 c 0
 296 330 542 127 809 127 c 0
809 -25 m 0
 354 -25 112 336 112 728 c 0
 112 1122 354 1483 809 1483 c 0
 1264 1483 1506 1122 1506 728 c 0
 1506 336 1264 -25 809 -25 c 0
EndSplineSet
EndChar

StartChar: P
Encoding: 80 80 15
Width: 1229
VWidth: 0
GlyphClass: 2
Flags: HW
HStem: 0 21<190 190 190 362> 587 149<362 594 362 613> 1318 138<362 570 570 593 362 362>
VStem: 174 172 961 184
AnchorPoint: "top" 700 1456 basechar 0
AnchorPoint: "bottom" 676 0 basechar 0
LayerCount: 2
UndoRedoHistory
Layer: 1
Undoes
EndUndoes
Redoes
EndRedoes
EndUndoRedoHistory
Fore
SplineSet
190 0 m 1
 190 1456 l 1
 570 1456 l 2
 985 1456 1161 1316 1161 1020 c 0
 1161 734 964 587 594 587 c 2
 362 587 l 1
 362 0 l 1
 190 0 l 1
362 736 m 1
 613 736 l 2
 854 736 977 832 977 1018 c 0
 977 1222 872 1318 593 1318 c 2
 362 1318 l 1
 362 736 l 1
EndSplineSet
EndChar

StartChar: Q
Encoding: 81 81 16
Width: 1618
VWidth: 0
GlyphClass: 2
Flags: HW
HStem: -25 152 1331 152
VStem: 112 184 1322 184
LayerCount: 2
UndoRedoHistory
Layer: 1
Undoes
EndUndoes
Redoes
EndRedoes
EndUndoRedoHistory
Fore
SplineSet
1217 -422 m 1
 927 -13 l 1
 1085 20 l 1
 1335 -338 l 1
 1217 -422 l 1
EndSplineSet
Refer: 14 79 N 1 0 0 1 0 0 2
EndChar

StartChar: R
Encoding: 82 82 17
Width: 1307
VWidth: 0
GlyphClass: 2
Flags: HW
HStem: 0 21<190 190 190 362 1055 1055 1055 1243> 652 147<362 617 617 705 362 617> 1318 138<362 539 539 628 362 362>
VStem: 174 172 960 182
AnchorPoint: "top" 700 1456 basechar 0
AnchorPoint: "bottom" 676 0 basechar 0
LayerCount: 2
UndoRedoHistory
Layer: 1
Undoes
EndUndoes
Redoes
EndRedoes
EndUndoRedoHistory
Fore
SplineSet
190 0 m 1
 190 1456 l 1
 539 1456 l 2
 861 1456 1158 1410 1158 1074 c 0
 1158 881 1054 739 821 677 c 1
 1243 0 l 1
 1055 0 l 1
 668 652 l 1
 362 652 l 1
 362 0 l 1
 190 0 l 1
362 799 m 1
 617 799 l 2
 806 799 976 859 976 1058 c 0
 976 1269 823 1318 628 1318 c 2
 362 1318 l 1
 362 799 l 1
EndSplineSet
EndChar

StartChar: S
Encoding: 83 83 18
Width: 1170
VWidth: 0
GlyphClass: 2
Flags: HW
HStem: -22 146<523.5 688 523.5 743> 1334 149<524.5 677.5>
VStem: 136 184 921 179
AnchorPoint: "top" 604 1456 basechar 0
AnchorPoint: "bottom" 587 -1 basechar 0
LayerCount: 2
UndoRedoHistory
Layer: 1
Undoes
EndUndoes
Redoes
EndRedoes
EndUndoRedoHistory
Fore
SplineSet
603 -22 m 0
 413 -22 233 61 142 130 c 1
 193 280 l 1
 286 203 451 124 596 124 c 0
 780 124 881 227 881 390 c 0
 881 511 830 587 530 681 c 0
 248 770 136 884 138 1105 c 0
 140 1346 339 1483 595 1483 c 0
 768 1483 902 1425 1008 1348 c 1
 942 1217 l 1
 860 1276 740 1334 615 1334 c 0
 434 1334 315 1258 312 1114 c 0
 308 968 369 905 630 821 c 1
 965 715 1050 589 1050 387 c 0
 1050 142 883 -22 603 -22 c 0
EndSplineSet
EndChar

StartChar: T
Encoding: 84 84 19
Width: 1143
VWidth: 0
GlyphClass: 2
Flags: HW
HStem: 0 21<484 484 484 656> 1318 138<24 484 24 1119 656 656 656 1119>
VStem: 484 172<0 1318 0 1318>
AnchorPoint: "top" 580 1456 basechar 0
AnchorPoint: "bottom" 696 0 basechar 0
LayerCount: 2
UndoRedoHistory
Layer: 1
Undoes
EndUndoes
Redoes
EndRedoes
EndUndoRedoHistory
Fore
SplineSet
484 0 m 1
 484 1318 l 1
 24 1318 l 1
 24 1456 l 1
 1119 1456 l 1
 1119 1318 l 1
 656 1318 l 1
 656 0 l 1
 484 0 l 1
EndSplineSet
EndChar

StartChar: U
Encoding: 85 85 20
Width: 1440
VWidth: 0
GlyphClass: 2
Flags: HW
HStem: -22 145<600.5 852 600.5 906> 1436 20<164 336 336 336 1106 1277 1277 1277>
VStem: 164 172<541 546 546 1456> 1106 171<551 1456 551 1456 551 1456>
AnchorPoint: "top" 656 1456 basechar 0
AnchorPoint: "bottom" 826 0 basechar 0
AnchorPoint: "ogonek" 850 0 basechar 0
LayerCount: 2
UndoRedoHistory
Layer: 1
Undoes
EndUndoes
Redoes
EndRedoes
EndUndoRedoHistory
Fore
SplineSet
732 -22 m 0
 363 -22 164 157 164 541 c 2
 164 1456 l 1
 336 1456 l 1
 336 546 l 2
 336 260 470 123 731 123 c 0
 973 123 1106 279 1106 539 c 2
 1106 1456 l 1
 1277 1456 l 1
 1277 551 l 1
 1275 191 1080 -22 732 -22 c 0
EndSplineSet
EndChar

StartChar: V
Encoding: 86 86 21
Width: 1303
VWidth: 0
GlyphClass: 2
Flags: HW
HStem: 1 21<568 568 568 754> 1436 20<13 201 201 201 1108 1291 1291 1291>
LayerCount: 2
UndoRedoHistory
Layer: 1
Undoes
EndUndoes
Redoes
EndRedoes
EndUndoRedoHistory
Fore
SplineSet
568 1 m 1
 13 1456 l 1
 201 1456 l 1
 613 325 l 1
 659 184 l 1
 707 324 l 1
 1108 1456 l 1
 1291 1456 l 1
 754 1 l 1
 568 1 l 1
EndSplineSet
EndChar

StartChar: W
Encoding: 87 87 22
Width: 2063
VWidth: 0
GlyphClass: 2
Flags: HW
HStem: 1 21<441 441 441 654> 1436 20<18 204 204 204 952 1125 1125 1125 1865 2045 2045 2045>
AnchorPoint: "top" 1023 1456 basechar 0
AnchorPoint: "bottom" 1017 0 basechar 0
LayerCount: 2
UndoRedoHistory
Layer: 1
Undoes
EndUndoes
Redoes
EndRedoes
EndUndoRedoHistory
Fore
SplineSet
441 1 m 1
 18 1456 l 1
 204 1456 l 1
 514 349 l 1
 552 189 l 1
 602 349 l 1
 952 1456 l 1
 1125 1456 l 1
 1472 345 l 1
 1518 190 l 1
 1560 349 l 1
 1865 1456 l 1
 2045 1456 l 1
 1622 0 l 1
 1410 0 l 1
 1033 1247 l 1
 654 1 l 1
 441 1 l 1
EndSplineSet
EndChar

StartChar: X
Encoding: 88 88 23
Width: 1269
VWidth: 0
GlyphClass: 2
Flags: HW
HStem: 0 21<11 215 11 11 1049 1250 1049 1049> 1436 20<50 256 256 256 1044 1240 1240 1240>
LayerCount: 2
UndoRedoHistory
Layer: 1
Undoes
EndUndoes
Redoes
EndRedoes
EndUndoRedoHistory
Fore
SplineSet
1049 0 m 1
 631 623 l 1
 215 0 l 1
 11 0 l 1
 535 741 l 1
 50 1456 l 1
 256 1456 l 1
 644 854 l 1
 1044 1456 l 1
 1240 1456 l 1
 742 742 l 1
 1250 0 l 1
 1049 0 l 1
EndSplineSet
EndChar

StartChar: Y
Encoding: 89 89 24
Width: 1225
VWidth: 0
GlyphClass: 2
Flags: HW
HStem: 0 21<526 526 526 698> 1436 20<4 195 195 195 1031 1222 1222 1222>
VStem: 526 172<0 582 582 582>
AnchorPoint: "top" 620 1456 basechar 0
AnchorPoint: "bottom" 625 0 basechar 0
LayerCount: 2
UndoRedoHistory
Layer: 1
Undoes
EndUndoes
Redoes
EndRedoes
EndUndoRedoHistory
Fore
SplineSet
526 0 m 1
 526 582 l 1
 4 1456 l 1
 195 1456 l 1
 611 727 l 1
 1031 1456 l 1
 1222 1456 l 1
 698 585 l 1
 698 0 l 1
 526 0 l 1
EndSplineSet
EndChar

StartChar: Z
Encoding: 90 90 25
Width: 1199
VWidth: 0
GlyphClass: 2
Flags: HW
HStem: 0 138<320 1123 320 1123> 1318 138<124 899 124 1131>
AnchorPoint: "top" 700 1456 basechar 0
AnchorPoint: "bottom" 676 0 basechar 0
LayerCount: 2
UndoRedoHistory
Layer: 1
Undoes
EndUndoes
Redoes
EndRedoes
EndUndoRedoHistory
Fore
SplineSet
92 0 m 1
 92 92 l 1
 899 1318 l 1
 124 1318 l 1
 124 1456 l 1
 1131 1456 l 1
 1131 1368 l 1
 320 138 l 1
 1123 138 l 1
 1123 0 l 1
 92 0 l 1
EndSplineSet
EndChar

StartChar: a
Encoding: 97 97 26
Width: 1184
VWidth: 0
GlyphClass: 2
Flags: HW
HStem: -22 136<448.5 575.5> -4 135 912 136<535.5 685>
VStem: 100 170<348 587 348 621> 834 164<356.5 453 453 877>
AnchorPoint: "top" 637 1026 basechar 0
AnchorPoint: "bottom" 616 0 basechar 0
AnchorPoint: "ogonek" 994 0 basechar 0
LayerCount: 2
UndoRedoHistory
Layer: 1
Undoes
EndUndoes
Redoes
EndRedoes
EndUndoRedoHistory
Fore
SplineSet
501 -22 m 0
 266 -22 100 162 100 438 c 0
 100 804 327 1048 652 1048 c 0
 779 1048 918 1014 998 962 c 1
 998 278 l 2
 998 175 1028 121 1143 121 c 1
 1114 -14 l 1
 954 -14 880 49 853 161 c 1
 787 48 650 -22 501 -22 c 0
525 114 m 0
 710 114 834 260 834 453 c 2
 834 877 l 1
 794 898 721 912 649 912 c 0
 422 912 270 726 270 448 c 0
 270 248 372 114 525 114 c 0
EndSplineSet
EndChar

StartChar: ampersand
Encoding: 38 38 27
Width: 1606
VWidth: 0
GlyphClass: 2
Flags: HW
HStem: -27 143<617.5 734 617.5 758> -12 21<1446 1446> 1340 133<601 706>
VStem: 115 180<368 427.5 332.5 462.5> 299 166<1164.5 1233 1132.5 1281.5> 842 164<1164 1212.5 1142 1232.5> 1256 167<863 884>
LayerCount: 2
UndoRedoHistory
Layer: 1
Undoes
EndUndoes
Redoes
EndRedoes
EndUndoRedoHistory
Fore
SplineSet
646 -27 m 0
 416 -27 239 62 156 220 c 0
 128 273 115 334 115 402 c 0
 115 523 169 607 233 672 c 0
 304 744 396 802 486 852 c 1
 420 921 349 988 314 1086 c 0
 303 1115 299 1147 299 1182 c 0
 299 1381 455 1473 646 1473 c 0
 799 1473 917 1414 976 1314 c 0
 997 1278 1006 1237 1006 1188 c 0
 1006 1096 962 1029 916 977 c 0
 861 915 787 864 712 822 c 1
 1110 398 l 1
 1174 493 1223 618 1245 756 c 0
 1252 800 1256 842 1256 884 c 1
 1423 863 l 1
 1414 625 1331 427 1221 284 c 1
 1294 208 1359 150 1468 114 c 0
 1499 104 1536 95 1578 86 c 1
 1446 -12 l 1
 1298 10 1217 100 1131 186 c 1
 1017 70 870 -27 646 -27 c 0
643 116 m 0
 825 116 934 197 1027 291 c 1
 1025 291 1017 298 1004 311 c 0
 940 375 868 454 802 523 c 2
 582 750 l 1
 477 694 371 632 319 522 c 0
 303 488 295 449 295 406 c 0
 295 259 394 176 503 138 c 0
 545 123 592 116 643 116 c 0
612 918 m 1
 694 963 779 1017 822 1099 c 0
 835 1124 842 1150 842 1178 c 0
 842 1287 758 1340 654 1340 c 0
 548 1340 465 1288 465 1178 c 0
 465 1087 508 1028 552 979 c 0
 570 959 590 939 612 918 c 1
EndSplineSet
EndChar

StartChar: asciicircum
Encoding: 94 94 28
Width: 1433
VWidth: 0
GlyphClass: 2
Flags: HW
LayerCount: 2
UndoRedoHistory
Layer: 1
Undoes
EndUndoes
Redoes
EndRedoes
EndUndoRedoHistory
Fore
SplineSet
184 550 m 1
 656 1432 l 1
 753 1432 l 1
 1232 550 l 1
 1077 550 l 1
 703 1260 l 1
 340 550 l 1
 184 550 l 1
EndSplineSet
EndChar

StartChar: asciitilde
Encoding: 126 126 29
Width: 1424
VWidth: 0
GlyphClass: 2
Flags: HW
HStem: 410 135<923.5 949> 571 134<464 496>
VStem: 189 115<385 440> 1098 125<684 723>
LayerCount: 2
UndoRedoHistory
Layer: 1
Undoes
EndUndoes
Redoes
EndRedoes
EndUndoRedoHistory
Fore
SplineSet
304 385 m 1
 189 440 l 1
 213 553 280 641 374 683 c 0
 407 698 444 705 484 705 c 0
 543 705 597 683 644 664 c 0
 722 632 798 587 876 557 c 0
 897 549 916 545 931 545 c 0
 1027 545 1080 641 1098 723 c 1
 1223 684 l 1
 1195 566 1134 473 1035 430 c 0
 1003 416 968 410 930 410 c 0
 880 410 830 433 790 452 c 0
 714 487 637 532 554 559 c 0
 529 567 506 571 486 571 c 0
 380 571 324 475 304 385 c 1
EndSplineSet
EndChar

StartChar: asterisk
Encoding: 42 42 30
Width: 1240
VWidth: 0
GlyphClass: 2
Flags: HW
HStem: 1436 20<535 672 672 672>
VStem: 535 137<1158 1456>
LayerCount: 2
UndoRedoHistory
Layer: 1
Undoes
EndUndoes
Redoes
EndRedoes
EndUndoRedoHistory
Fore
SplineSet
780 742 m 1
 626 1008 l 1
 478 750 l 1
 354 825 l 1
 544 1063 l 1
 272 1141 l 1
 293 1276 l 1
 575 1153 l 1
 563 1253 547 1356 535 1456 c 1
 672 1456 l 1
 672 1158 l 1
 904 1279 l 1
 968 1154 l 1
 706 1066 l 1
 906 815 l 1
 780 742 l 1
EndSplineSet
EndChar

StartChar: at
Encoding: 64 64 31
Width: 1849
VWidth: 0
GlyphClass: 2
Flags: HW
HStem: -109 121 225 125 257 128 1007 131 1357 119
VStem: 133 151 492 157 1116 82 1563 153
LayerCount: 2
UndoRedoHistory
Layer: 1
Undoes
EndUndoes
Redoes
EndRedoes
EndUndoRedoHistory
Fore
SplineSet
949 -109 m 0
 491 -109 133 216 133 679 c 0
 133 1143 503 1476 953 1476 c 0
 1367 1476 1716 1205 1716 791 c 0
 1716 477 1515 262 1294 262 c 0
 1176 262 1116 351 1116 477 c 1
 1060 344 920 254 809 254 c 0
 590 254 509 445 509 607 c 0
 509 893 734 1135 976 1135 c 0
 1078 1135 1159 1088 1196 1019 c 1
 1214 1104 l 1
 1354 1104 l 1
 1268 708 1215 493 1215 423 c 0
 1215 367 1236 337 1294 337 c 0
 1465 337 1604 525 1604 794 c 0
 1604 1159 1294 1382 951 1382 c 0
 556 1382 260 1080 260 677 c 0
 260 261 548 -8 954 -8 c 0
 1215 -8 1348 76 1467 182 c 1
 1524 122 l 1
 1401 -17 1201 -109 949 -109 c 0
835 362 m 0
 1015 362 1144 619 1144 818 c 0
 1144 933 1090 1040 979 1040 c 0
 796 1040 648 830 648 587 c 0
 648 440 724 362 835 362 c 0
EndSplineSet
EndChar

StartChar: b
Encoding: 98 98 32
Width: 1164
VWidth: 0
GlyphClass: 2
Flags: HW
HStem: -22 136<474 660 474 706> 912 136<593.5 709> 1505 20<156 321 156 156>
VStem: 152 165 888 170
AnchorPoint: "top" 686 1249 basechar 0
AnchorPoint: "bottom" 789 0 basechar 0
LayerCount: 2
UndoRedoHistory
Layer: 1
Undoes
EndUndoes
Redoes
EndRedoes
EndUndoRedoHistory
Fore
SplineSet
554 -22 m 0
 321 -22 156 71 156 71 c 1
 156 1525 l 1
 321 1525 l 1
 321 864 l 1
 413 998 526 1048 661 1048 c 0
 884 1048 1062 865 1062 545 c 0
 1062 215 858 -22 554 -22 c 0
548 114 m 0
 772 114 892 318 892 550 c 0
 892 793 780 912 638 912 c 0
 485 912 321 787 321 597 c 2
 321 151 l 1
 321 151 400 114 548 114 c 0
EndSplineSet
EndChar

StartChar: backslash
Encoding: 92 92 33
Width: 693
VWidth: 0
GlyphClass: 2
Flags: HW
HStem: 1431 20<-47 120 120 120>
LayerCount: 2
UndoRedoHistory
Layer: 1
Undoes
EndUndoes
Redoes
EndRedoes
EndUndoRedoHistory
Fore
SplineSet
582 -215 m 1
 -47 1451 l 1
 120 1451 l 1
 745 -215 l 1
 582 -215 l 1
EndSplineSet
EndChar

StartChar: bar
Encoding: 124 124 34
Width: 954
VWidth: 0
GlyphClass: 2
Flags: HW
HStem: -482 21
VStem: 389 176
LayerCount: 2
UndoRedoHistory
Layer: 1
Undoes
EndUndoes
Redoes
EndRedoes
EndUndoRedoHistory
Fore
SplineSet
389 -482 m 1
 389 1536 l 1
 565 1536 l 1
 565 -482 l 1
 389 -482 l 1
EndSplineSet
EndChar

StartChar: braceleft
Encoding: 123 123 35
Width: 734
VWidth: 0
GlyphClass: 2
Flags: HW
HStem: -230 142 555 135 1332 143
VStem: 261 186
LayerCount: 2
UndoRedoHistory
Layer: 1
Undoes
EndUndoes
Redoes
EndRedoes
EndUndoRedoHistory
Fore
SplineSet
643 -230 m 1
 419 -224 261 -133 261 64 c 2
 261 314 l 2
 261 445 209 543 69 555 c 1
 69 690 l 1
 183 698 260 778 261 907 c 2
 261 1151 l 2
 261 1345 382 1475 644 1475 c 1
 644 1332 l 1
 531 1330 448 1276 448 1143 c 2
 448 870 l 2
 448 730 354 652 249 620 c 1
 366 577 448 462 448 355 c 2
 448 123 l 2
 448 -47 532 -87 643 -87 c 1
 643 -230 l 1
EndSplineSet
EndChar

StartChar: braceright
Encoding: 125 125 36
Width: 754
VWidth: 0
GlyphClass: 2
Flags: HW
HStem: -230 143 555 135 1332 142
VStem: 303 187
LayerCount: 2
UndoRedoHistory
Layer: 1
Undoes
EndUndoes
Redoes
EndRedoes
EndUndoRedoHistory
Fore
SplineSet
107 -230 m 1
 107 -87 l 1
 220 -85 303 -31 303 102 c 2
 303 374 l 2
 303 514 397 593 502 625 c 1
 385 668 303 783 303 890 c 2
 303 1122 l 2
 303 1292 219 1332 108 1332 c 1
 108 1475 l 1
 332 1469 490 1378 490 1181 c 2
 490 931 l 2
 490 800 542 702 682 690 c 1
 682 555 l 1
 568 547 491 467 490 338 c 2
 490 94 l 2
 490 -100 369 -230 107 -230 c 1
EndSplineSet
EndChar

StartChar: bracketleft
Encoding: 91 91 37
Width: 628
VWidth: 0
GlyphClass: 2
Flags: HW
HStem: -259 122<354 548 354 548> 1329 122<354 547 354 354>
VStem: 191 357<-259 -137 -259 1451> 191 163<-137 1329 -137 1451 -137 1451>
LayerCount: 2
UndoRedoHistory
Layer: 1
Undoes
EndUndoes
Redoes
EndRedoes
EndUndoRedoHistory
Fore
SplineSet
191 -259 m 1
 191 1451 l 1
 547 1451 l 1
 547 1329 l 1
 354 1329 l 1
 354 -137 l 1
 548 -137 l 1
 548 -259 l 1
 191 -259 l 1
EndSplineSet
EndChar

StartChar: bracketright
Encoding: 93 93 38
Width: 628
VWidth: 0
GlyphClass: 2
Flags: HW
HStem: -259 122<87 278 87 278 87 442> 1329 122<88 278 88 88>
VStem: 87 355<-259 -137 -137 -137> 278 164<-137 1329 1329 1329>
LayerCount: 2
UndoRedoHistory
Layer: 1
Undoes
EndUndoes
Redoes
EndRedoes
EndUndoRedoHistory
Fore
SplineSet
87 -259 m 1
 87 -137 l 1
 278 -137 l 1
 278 1329 l 1
 88 1329 l 1
 78 1451 l 1
 442 1451 l 1
 442 -259 l 1
 87 -259 l 1
EndSplineSet
EndChar

StartChar: c
Encoding: 99 99 39
Width: 1022
VWidth: 0
GlyphClass: 2
Flags: HW
HStem: -22 136<517 657.5> 912 136<526.5 658>
VStem: 100 170
AnchorPoint: "top" 597 1026 basechar 0
AnchorPoint: "bottom" 599 0 basechar 0
LayerCount: 2
UndoRedoHistory
Layer: 1
Undoes
EndUndoes
Redoes
EndRedoes
EndUndoRedoHistory
Fore
SplineSet
595 -22 m 0
 330 -22 102 177 102 509 c 0
 102 849 339 1048 601 1048 c 0
 716 1048 839 1011 929 924 c 1
 867 806 l 1
 797 874 702 912 614 912 c 0
 439 912 272 776 272 508 c 0
 272 251 425 114 609 114 c 0
 709 114 818 158 894 227 c 1
 950 102 l 1
 847 21 720 -22 595 -22 c 0
EndSplineSet
EndChar

StartChar: colon
Encoding: 58 58 40
Width: 540
VWidth: 0
GlyphClass: 2
Flags: HW
HStem: -11 210<159 376 159 376> 841 210<159 376 159 376>
VStem: 159 217<-11 199 -11 199 841 1051>
LayerCount: 2
UndoRedoHistory
Layer: 1
Undoes
EndUndoes
Redoes
EndRedoes
EndUndoRedoHistory
Fore
SplineSet
159 -11 m 1
 159 199 l 1
 376 199 l 1
 376 -11 l 1
 159 -11 l 1
159 841 m 1
 159 1051 l 1
 376 1051 l 1
 376 841 l 1
 159 841 l 1
EndSplineSet
EndChar

StartChar: comma
Encoding: 44 44 41
Width: 540
VWidth: 0
GlyphClass: 2
Flags: HW
HStem: -310 517<78 372 185 209>
VStem: 78 294
LayerCount: 2
UndoRedoHistory
Layer: 1
Undoes
EndUndoes
Redoes
EndRedoes
EndUndoRedoHistory
Fore
SplineSet
78 -310 m 1
 185 207 l 1
 372 207 l 1
 209 -310 l 1
 78 -310 l 1
EndSplineSet
EndChar

StartChar: d
Encoding: 100 100 42
Width: 1199
VWidth: 0
GlyphClass: 2
Flags: HW
HStem: -22 136<455.5 595.5> 912 136<530.5 673.5 503 680> 1506 20<841 1006 841 841>
VStem: 100 171 839 165
AnchorPoint: "top" 790 1456 basechar 0
AnchorPoint: "bottom" 826 0 basechar 0
LayerCount: 2
UndoRedoHistory
Layer: 1
Undoes
EndUndoes
Redoes
EndRedoes
EndUndoRedoHistory
Fore
SplineSet
273 459 m 0
 273 229 384 114 527 114 c 0
 716 114 842 258 842 497 c 2
 842 876 l 1
 772 901 709 912 651 912 c 0
 410 912 273 714 273 459 c 0
861 161 m 1
 792 44 677 -22 514 -22 c 0
 280 -22 102 145 102 460 c 0
 102 855 365 1048 641 1048 c 0
 706 1048 776 1033 841 1010 c 1
 841 1526 l 1
 1006 1526 l 1
 1006 314 l 2
 1006 189 1020 121 1151 121 c 1
 1122 -14 l 1
 972 -14 888 44 861 161 c 1
EndSplineSet
EndChar

StartChar: dollar
Encoding: 36 36 43
Width: 1228
VWidth: 0
GlyphClass: 2
Flags: HW
HStem: -16 143<541 542> 1299 140<662 663>
VStem: 153 189<1019 1105.5> 544 119<605 648> 896 179<341.5 419 269 432.5>
LayerCount: 2
UndoRedoHistory
Layer: 1
Undoes
EndUndoes
Redoes
EndRedoes
EndUndoRedoHistory
Fore
SplineSet
546 -172 m 1
 542 -16 l 1
 409 -13 307 25 218 89 c 1
 267 223 l 1
 341 173 435 132 541 127 c 1
 544 648 l 1
 406 712 256 772 185 904 c 0
 164 944 153 991 153 1047 c 0
 153 1164 211 1254 275 1315 c 0
 341 1377 436 1428 544 1437 c 1
 540 1575 l 1
 659 1575 l 1
 662 1439 l 1
 797 1436 912 1394 992 1326 c 1
 943 1198 l 1
 874 1261 781 1295 663 1299 c 1
 661 770 l 1
 779 722 884 677 967 604 c 0
 1033 547 1075 477 1075 361 c 0
 1075 177 953 74 818 24 c 0
 769 5 716 -6 661 -11 c 1
 664 -172 l 1
 546 -172 l 1
659 131 m 1
 759 145 839 192 877 270 c 0
 889 296 896 325 896 358 c 0
 896 507 766 559 663 605 c 1
 659 131 l 1
542 818 m 1
 544 1293 l 1
 429 1278 342 1193 342 1059 c 0
 342 913 439 858 542 818 c 1
EndSplineSet
EndChar

StartChar: e
Encoding: 101 101 44
Width: 1070
VWidth: 0
GlyphClass: 2
Flags: HW
HStem: -22 136<553 671> 912 136<525.5 661.5>
VStem: 100 180 790 163
AnchorPoint: "top" 608 1026 basechar 0
AnchorPoint: "bottom" 656 0 basechar 0
AnchorPoint: "ogonek" 881 66 basechar 0
LayerCount: 2
UndoRedoHistory
Layer: 1
Undoes
EndUndoes
Redoes
EndRedoes
EndUndoRedoHistory
Fore
SplineSet
608 -22 m 0
 335 -22 102 175 102 512 c 0
 102 791 292 1048 603 1048 c 0
 810 1048 947 918 947 751 c 0
 947 506 663 425 294 371 c 1
 338 205 478 114 628 114 c 0
 728 114 833 152 918 233 c 1
 990 119 l 1
 870 22 734 -22 608 -22 c 0
283 490 m 1
 577 534 784 593 784 754 c 0
 784 848 719 912 604 912 c 0
 447 912 280 789 280 539 c 0
 280 525 281 506 283 490 c 1
EndSplineSet
EndChar

StartChar: eight
Encoding: 56 56 45
Width: 1222
VWidth: 0
GlyphClass: 2
Flags: HW
HStem: -22 142<524.5 702 524.5 743.5> 1347 136<530.5 686>
VStem: 130 177<300.5 476.5 300.5 483.5> 165 171<1031.5 1187.5 1031.5 1251> 887 171<1031.5 1194> 916 177<304.5 483.5>
LayerCount: 2
UndoRedoHistory
Layer: 1
Undoes
EndUndoes
Redoes
EndRedoes
EndUndoRedoHistory
Fore
SplineSet
611 -22 m 0
 335 -22 130 133 130 377 c 0
 130 590 267 714 440 767 c 1
 288 816 165 928 165 1121 c 0
 165 1381 385 1483 611 1483 c 0
 870 1483 1058 1345 1058 1121 c 0
 1058 928 934 816 782 767 c 1
 955 714 1093 590 1093 377 c 0
 1093 101 876 -22 611 -22 c 0
611 120 m 0
 793 120 916 219 916 390 c 0
 916 577 762 661 611 693 c 1
 448 659 307 563 307 390 c 0
 307 211 438 120 611 120 c 0
611 840 m 1
 762 869 887 947 887 1116 c 0
 887 1272 761 1347 611 1347 c 0
 450 1347 336 1259 336 1116 c 0
 336 947 460 869 611 840 c 1
EndSplineSet
EndChar

StartChar: equal
Encoding: 61 61 46
Width: 1232
VWidth: 0
GlyphClass: 2
Flags: HW
HStem: 403 137<180 1053 180 1053> 809 138<179 1052 179 1052>
LayerCount: 2
UndoRedoHistory
Layer: 1
Undoes
EndUndoes
Redoes
EndRedoes
EndUndoRedoHistory
Fore
SplineSet
180 403 m 1
 180 540 l 1
 1053 540 l 1
 1053 403 l 1
 180 403 l 1
179 809 m 1
 179 947 l 1
 1052 947 l 1
 1052 809 l 1
 179 809 l 1
EndSplineSet
EndChar

StartChar: exclam
Encoding: 33 33 47
Width: 737
VWidth: 0
GlyphClass: 2
Flags: HW
HStem: -6 223<340.5 396.5> 1436 20<270 457 270 270>
VStem: 255 227<76 135 70 141> 270 187<1456 1456> 321 86<373 373>
LayerCount: 2
UndoRedoHistory
Layer: 1
Undoes
EndUndoes
Redoes
EndRedoes
EndUndoRedoHistory
Fore
SplineSet
368 -6 m 0
 295 -6 255 46 255 106 c 0
 255 176 312 217 369 217 c 0
 442 217 482 165 482 105 c 0
 482 35 425 -6 368 -6 c 0
321 373 m 1
 270 1456 l 1
 457 1456 l 1
 407 373 l 1
 321 373 l 1
EndSplineSet
EndChar

StartChar: f
Encoding: 102 102 48
Width: 701
VWidth: 0
GlyphClass: 2
Flags: HW
HStem: -404 135<143 163> 919 107<54 256 54 256 415 661> 1406 120<621.5 657 657 711>
VStem: 253 159
AnchorPoint: "top" 543 1464 basechar 0
AnchorPoint: "bottom" 366 0 basechar 0
LayerCount: 2
UndoRedoHistory
Layer: 1
Undoes
EndUndoes
Redoes
EndRedoes
EndUndoRedoHistory
Fore
SplineSet
163 -404 m 1
 143 -269 l 1
 229 -255 256 -227 256 -76 c 2
 256 919 l 1
 54 919 l 1
 54 1026 l 1
 256 1026 l 1
 256 1194 l 2
 256 1447 394 1526 657 1526 c 2
 711 1526 l 1
 711 1406 l 1
 532 1406 415 1393 415 1196 c 2
 415 1026 l 1
 661 1026 l 1
 661 919 l 1
 415 919 l 1
 415 -83 l 2
 415 -215 393 -393 163 -404 c 1
EndSplineSet
EndChar

StartChar: five
Encoding: 53 53 49
Width: 1230
VWidth: 0
GlyphClass: 2
Flags: HW
HStem: -23 164 764 168 1292 164
VStem: 235 164 910 197
LayerCount: 2
UndoRedoHistory
Layer: 1
Undoes
EndUndoes
Redoes
EndRedoes
EndUndoRedoHistory
Fore
SplineSet
609 -23 m 0
 448 -23 285 24 166 146 c 1
 257 288 l 1
 355 179 486 141 606 141 c 0
 808 141 910 277 910 464 c 0
 910 629 818 764 642 764 c 0
 555 764 454 727 414 665 c 1
 235 673 l 1
 235 1456 l 1
 1020 1456 l 1
 1020 1292 l 1
 413 1292 l 1
 399 834 l 1
 461 900 564 932 659 932 c 0
 933 932 1107 731 1107 461 c 0
 1107 175 917 -23 609 -23 c 0
EndSplineSet
EndChar

StartChar: four
Encoding: 52 52 50
Width: 1230
VWidth: 0
GlyphClass: 2
Flags: HW
HStem: 0 21<743.557 743.557 743.557 936.326> 386 150 1436 20<687.876 935.341 935.341 935.341>
VStem: 744 191
LayerCount: 2
UndoRedoHistory
Layer: 1
Undoes
EndUndoes
Redoes
EndRedoes
EndUndoRedoHistory
Fore
SplineSet
744 0 m 1
 744 386 l 1
 105 386 l 1
 105 541 l 1
 688 1456 l 1
 935 1456 l 1
 935 536 l 1
 1153 536 l 1
 1153 386 l 1
 936 386 l 1
 936 0 l 1
 744 0 l 1
307 536 m 1
 744 536 l 1
 744 1247 l 1
 641 1081 l 1
 307 536 l 1
EndSplineSet
EndChar

StartChar: g
Encoding: 103 103 51
Width: 1159
VWidth: 0
GlyphClass: 2
Flags: HW
HStem: -494 137<471.5 607.5 464.5 663.5> -22 136<453 578> 912 136<537 689.5>
VStem: 100 170 839 164
AnchorPoint: "top" 574 1027 basechar 0
AnchorPoint: "bottom" 582 -512 basechar 0
LayerCount: 2
UndoRedoHistory
Layer: 1
Undoes
EndUndoes
Redoes
EndRedoes
EndUndoRedoHistory
Fore
SplineSet
520 -494 m 0
 423 -494 295 -470 195 -433 c 1
 211 -280 l 1
 302 -326 422 -357 507 -357 c 0
 708 -357 841 -232 841 -44 c 2
 841 153 l 1
 765 28 646 -22 510 -22 c 0
 270 -22 102 162 102 438 c 0
 102 820 324 1048 656 1048 c 0
 785 1048 925 1014 1005 962 c 1
 1005 -23 l 2
 1005 -306 807 -494 520 -494 c 0
531 114 m 0
 735 114 841 273 841 476 c 2
 841 877 l 1
 801 889 726 912 653 912 c 0
 421 912 272 734 272 448 c 0
 272 248 375 114 531 114 c 0
EndSplineSet
EndChar

StartChar: grave
Encoding: 96 96 52
Width: 593
VWidth: 0
GlyphClass: 2
Flags: HW
HStem: 1172 320<1 333 1 462>
VStem: 1 461<1172 1492>
AnchorPoint: "top" 448 1022 mark 0
LayerCount: 2
UndoRedoHistory
Layer: 1
Undoes
EndUndoes
Redoes
EndRedoes
EndUndoRedoHistory
Fore
SplineSet
333 1172 m 1
 1 1492 l 1
 215 1492 l 1
 462 1172 l 1
 333 1172 l 1
EndSplineSet
EndChar

StartChar: greater
Encoding: 62 62 53
Width: 1437
VWidth: 0
GlyphClass: 2
Flags: HW
LayerCount: 2
UndoRedoHistory
Layer: 1
Undoes
EndUndoes
Redoes
EndRedoes
EndUndoRedoHistory
Fore
SplineSet
215 58 m 1
 215 212 l 1
 983 555 l 1
 220 926 l 1
 220 1078 l 1
 1204 594 l 1
 1204 505 l 1
 215 58 l 1
EndSplineSet
EndChar

StartChar: h
Encoding: 104 104 54
Width: 1227
VWidth: 0
GlyphClass: 2
Flags: HW
HStem: -20 130<1145 1155 1155 1158 1158 1158> 0 21<154 318 318 318> 912 136<583 706> 1506 20<154 318 154 154>
VStem: 152 164 844 164
AnchorPoint: "top" 737 1260 basechar 0
AnchorPoint: "bottom" 645 0 basechar 0
LayerCount: 2
UndoRedoHistory
Layer: 1
Undoes
EndUndoes
Redoes
EndRedoes
EndUndoRedoHistory
Fore
SplineSet
1158 -20 m 1
 1145 -20 l 2
 937 -20 856 74 856 294 c 2
 856 562 l 2
 856 808 780 912 632 912 c 0
 486 912 318 790 318 541 c 2
 318 0 l 1
 154 0 l 1
 154 1526 l 1
 318 1526 l 1
 318 865 l 1
 384 980 510 1048 656 1048 c 0
 880 1048 1020 903 1020 565 c 2
 1020 320 l 2
 1020 172 1052 110 1155 110 c 2
 1179 110 l 1
 1158 -20 l 1
EndSplineSet
EndChar

StartChar: hyphen
Encoding: 45 45 55
Width: 1237
VWidth: 0
GlyphClass: 2
Flags: HW
HStem: 637 143<219 1018 219 1018>
LayerCount: 2
UndoRedoHistory
Layer: 1
Undoes
EndUndoes
Redoes
EndRedoes
EndUndoRedoHistory
Fore
SplineSet
219 637 m 1
 219 780 l 1
 1018 780 l 1
 1018 637 l 1
 219 637 l 1
EndSplineSet
EndChar

StartChar: i
Encoding: 105 105 56
Width: 611
VWidth: 0
GlyphClass: 2
Flags: HW
HStem: 1006 20<175 339 175 175> 1245 199<233 286>
VStem: 152 215<1312 1377 1311 1378> 175 164<121.5 1026 267 1026 267 1026>
AnchorPoint: "bottom" 256 1 basechar 0
LayerCount: 2
UndoRedoHistory
Layer: 1
Undoes
EndUndoes
Redoes
EndRedoes
EndUndoRedoHistory
Fore
SplineSet
641 26 m 1
 409 -69 175 -19 175 262 c 2
 175 1026 l 1
 339 1026 l 1
 339 267 l 2
 339 74 482 96 618 145 c 1
 641 26 l 1
259 1245 m 0
 205 1245 152 1279 152 1345 c 0
 152 1411 206 1444 260 1444 c 0
 314 1444 367 1410 367 1344 c 0
 367 1278 313 1245 259 1245 c 0
EndSplineSet
EndChar

StartChar: j
Encoding: 106 106 57
Width: 539
VWidth: 0
GlyphClass: 2
Flags: HW
HStem: -463 131 1006 20<206 371 206 206> 1245 199<264 317>
VStem: 183 215<1312 1377 1311 1378> 207 164
AnchorPoint: "top" 700 1456 basechar 0
AnchorPoint: "bottom" 676 0 basechar 0
LayerCount: 2
UndoRedoHistory
Layer: 1
Undoes
EndUndoes
Redoes
EndRedoes
EndUndoRedoHistory
Fore
SplineSet
91 -464 m 0
 34 -464 -27 -452 -60 -443 c 1
 -45 -311 l 1
 -45 -311 10 -329 68 -329 c 0
 179 -329 206 -269 206 -76 c 2
 206 1026 l 1
 371 1026 l 1
 371 -84 l 2
 371 -360 292 -464 91 -464 c 0
290 1245 m 0
 236 1245 183 1279 183 1345 c 0
 183 1411 237 1444 291 1444 c 0
 345 1444 398 1410 398 1344 c 0
 398 1278 344 1245 290 1245 c 0
EndSplineSet
EndChar

StartChar: k
Encoding: 107 107 58
Width: 1108
VWidth: 0
GlyphClass: 2
Flags: HW
HStem: 1006 20<842 842> 1506 20<154 318 154 154>
VStem: 152 164
AnchorPoint: "top" 767 1026 basechar 0
AnchorPoint: "bottom" 616 -1 basechar 0
LayerCount: 2
UndoRedoHistory
Layer: 1
Undoes
EndUndoes
Redoes
EndRedoes
EndUndoRedoHistory
Fore
SplineSet
1102 129 m 1
 1090 -6 l 1
 921 -74 817 44 700 204 c 2
 564 390 l 1
 299 27 l 1
 244 -40 154 -24 154 60 c 2
 154 1526 l 1
 318 1526 l 1
 318 288 l 1
 842 1026 l 1
 990 976 l 1
 653 512 l 1
 813 293 l 2
 894 183 975 58 1102 129 c 1
EndSplineSet
EndChar

StartChar: l
Encoding: 108 108 59
Width: 676
VWidth: 0
GlyphClass: 2
Flags: HW
HStem: -18 126<448.5 511> 1506 20<158 322 158 158>
VStem: 168 164
AnchorPoint: "top" 266 1474 basechar 0
AnchorPoint: "bottom" 264 0 basechar 0
LayerCount: 2
UndoRedoHistory
Layer: 1
Undoes
EndUndoes
Redoes
EndRedoes
EndUndoRedoHistory
Fore
SplineSet
685 152 m 1
 710 35 l 1
 630 0 548 -18 474 -18 c 0
 297 -18 158 83 158 300 c 2
 158 1526 l 1
 322 1526 l 1
 322 292 l 2
 322 159 398 108 499 108 c 0
 556 108 621 125 685 152 c 1
EndSplineSet
EndChar

StartChar: less
Encoding: 60 60 60
Width: 1437
VWidth: 0
GlyphClass: 2
Flags: HW
LayerCount: 2
UndoRedoHistory
Layer: 1
Undoes
EndUndoes
Redoes
EndRedoes
EndUndoRedoHistory
Fore
SplineSet
1202 48 m 1
 219 508 l 1
 219 595 l 1
 1206 1067 l 1
 1206 914 l 1
 438 552 l 1
 1202 200 l 1
 1202 48 l 1
EndSplineSet
EndChar

StartChar: m
Encoding: 109 109 61
Width: 1922
VWidth: 0
GlyphClass: 2
Flags: HW
HStem: -20 131 0 21<199 363 363 363 881 1045 1045 1045> 912 136<623 744 1302.5 1423>
VStem: 199 164<0 525 525 652.5 0 676 0 525> 880 165 1551 164<210 565 353 562>
AnchorPoint: "top" 952 1024 basechar 0
AnchorPoint: "bottom" 946 0 basechar 0
LayerCount: 2
UndoRedoHistory
Layer: 1
Undoes
EndUndoes
Redoes
EndRedoes
EndUndoRedoHistory
Fore
SplineSet
1847 -14 m 1
 1830 -14 l 2
 1619 -14 1551 96 1551 324 c 2
 1551 562 l 2
 1551 808 1497 912 1349 912 c 0
 1203 912 1045 799 1045 532 c 2
 1045 0 l 1
 881 0 l 1
 881 562 l 2
 881 808 818 912 670 912 c 0
 500 912 363 780 363 525 c 2
 363 0 l 1
 199 0 l 1
 199 676 l 2
 199 809 130 890 76 937 c 1
 218 1018 l 1
 265 981 319 902 326 829 c 1
 408 967 534 1048 712 1048 c 0
 870 1048 967 945 996 827 c 1
 1075 973 1224 1048 1381 1048 c 0
 1606 1048 1715 903 1715 565 c 2
 1715 353 l 2
 1715 180 1729 121 1851 121 c 2
 1874 121 l 1
 1847 -14 l 1
EndSplineSet
EndChar

StartChar: n
Encoding: 110 110 62
Width: 1261
VWidth: 0
GlyphClass: 2
Flags: HW
HStem: -20 130 0 21<199 363 363 363> 912 136<618 731.5> 1005 20
VStem: 199 164<0 518 518 657 0 679 0 518> 890 164<311 338 338 576>
AnchorPoint: "top" 700 1456 basechar 0
AnchorPoint: "bottom" 676 0 basechar 0
LayerCount: 2
UndoRedoHistory
Layer: 1
Undoes
EndUndoes
Redoes
EndRedoes
EndUndoRedoHistory
Fore
SplineSet
1213 121 m 1
 1186 -14 l 1
 1166 -14 l 2
 944 -14 890 112 890 338 c 2
 890 576 l 2
 890 822 804 912 659 912 c 0
 511 912 363 796 363 518 c 2
 363 0 l 1
 199 0 l 1
 199 679 l 2
 199 813 124 897 76 937 c 1
 218 1019 l 1
 270 974 315 907 326 829 c 1
 388 960 531 1048 705 1048 c 0
 901 1048 1054 904 1054 584 c 2
 1054 311 l 2
 1054 181 1077 121 1182 121 c 2
 1213 121 l 1
EndSplineSet
EndChar

StartChar: nine
Encoding: 57 57 63
Width: 1226
VWidth: 0
GlyphClass: 2
Flags: HW
HStem: 515 136<501 657> 1334 149<525.5 741>
VStem: 124 172<907.5 1099.5 907.5 1138.5> 953 167<928 1097>
LayerCount: 2
UndoRedoHistory
Layer: 1
Undoes
EndUndoes
Redoes
EndRedoes
EndUndoRedoHistory
Fore
SplineSet
527 -76 m 1
 397 0 l 1
 790 575 l 1
 782 569 710 515 604 515 c 0
 306 515 124 724 124 995 c 0
 124 1282 338 1483 617 1483 c 0
 961 1483 1120 1243 1120 991 c 0
 1120 865 1072 729 981 598 c 1
 527 -76 l 1
623 651 m 0
 842 651 953 791 953 992 c 0
 953 1202 854 1334 628 1334 c 0
 423 1334 296 1205 296 994 c 0
 296 821 379 651 623 651 c 0
EndSplineSet
EndChar

StartChar: numbersign
Encoding: 35 35 64
Width: 1221
VWidth: 0
GlyphClass: 2
Flags: HW
HStem: 485 126<64 305 53 328 64 443 464 694 857 1092> 886 124<131 376 118 397 131 516 539 767 928 1155>
LayerCount: 2
UndoRedoHistory
Layer: 1
Undoes
EndUndoes
Redoes
EndRedoes
EndUndoRedoHistory
Fore
SplineSet
221 60 m 1
 305 485 l 1
 53 485 l 1
 64 611 l 1
 328 611 l 1
 343 705 360 793 376 886 c 1
 118 886 l 1
 131 1010 l 1
 397 1010 l 1
 473 1420 l 1
 613 1420 l 1
 539 1010 l 1
 790 1010 l 1
 863 1420 l 1
 1006 1420 l 1
 928 1010 l 1
 1169 1010 l 1
 1155 886 l 1
 906 886 l 1
 857 611 l 1
 1106 611 l 1
 1092 485 l 1
 836 485 l 1
 756 60 l 1
 617 60 l 1
 694 485 l 1
 443 485 l 1
 364 60 l 1
 221 60 l 1
464 611 m 1
 718 611 l 1
 767 886 l 1
 516 886 l 1
 464 611 l 1
EndSplineSet
EndChar

StartChar: o
Encoding: 111 111 65
Width: 1198
VWidth: 0
GlyphClass: 2
Flags: HW
HStem: -22 136<504.5 701 504.5 748> 912 136<504 700.5>
VStem: 100 170 923 171
AnchorPoint: "top" 598 1026 basechar 0
AnchorPoint: "bottom" 585 0 basechar 0
AnchorPoint: "ogonek" 675 0 basechar 0
LayerCount: 2
UndoRedoHistory
Layer: 1
Undoes
EndUndoes
Redoes
EndRedoes
EndUndoRedoHistory
Fore
SplineSet
604 114 m 0
 798 114 925 273 925 511 c 0
 925 752 798 912 603 912 c 0
 405 912 272 751 272 509 c 0
 272 272 405 114 604 114 c 0
604 -22 m 0
 311 -22 102 191 102 511 c 0
 102 833 311 1048 603 1048 c 0
 891 1048 1096 834 1096 513 c 0
 1096 192 892 -22 604 -22 c 0
EndSplineSet
EndChar

StartChar: one
Encoding: 49 49 66
Width: 1248
VWidth: 0
GlyphClass: 2
Flags: HW
HStem: 0 21<658 830 830 830> 1436 20<665 830 665 665>
VStem: 658 172<0 1456 0 1288>
LayerCount: 2
UndoRedoHistory
Layer: 1
Undoes
EndUndoes
Redoes
EndRedoes
EndUndoRedoHistory
Fore
SplineSet
658 0 m 1
 658 1288 l 1
 592 1238 506 1190 400 1146 c 1
 359 1277 l 1
 475 1330 597 1405 665 1456 c 1
 830 1456 l 1
 830 0 l 1
 658 0 l 1
EndSplineSet
EndChar

StartChar: p
Encoding: 112 112 67
Width: 1171
VWidth: 0
GlyphClass: 2
Flags: HW
HStem: -457 21 -22 136<538 647.5 515 722> 912 136<591 709>
VStem: 173 164 910 169
AnchorPoint: "top" 790 1456 basechar 0
AnchorPoint: "bottom" 826 0 basechar 0
LayerCount: 2
UndoRedoHistory
Layer: 1
Undoes
EndUndoes
Redoes
EndRedoes
EndUndoRedoHistory
Fore
SplineSet
163 -439 m 1
 163 646 l 2
 163 812 89 899 40 937 c 1
 181 1018 l 1
 219 989 275 923 290 829 c 1
 382 989 527 1048 655 1048 c 0
 912 1048 1069 853 1069 543 c 0
 1069 186 867 -22 577 -22 c 0
 499 -22 415 -7 327 24 c 1
 327 -439 l 1
 163 -439 l 1
326 166 m 1
 402 132 479 114 551 114 c 0
 744 114 900 239 900 541 c 0
 900 785 798 912 620 912 c 0
 474 912 326 790 326 508 c 2
 326 166 l 1
EndSplineSet
EndChar

StartChar: parenleft
Encoding: 40 40 68
Width: 626
VWidth: 0
GlyphClass: 2
Flags: HW
LayerCount: 2
UndoRedoHistory
Layer: 1
Undoes
EndUndoes
Redoes
EndRedoes
EndUndoRedoHistory
Fore
SplineSet
421 -214 m 1
 60 355 48 956 427 1551 c 1
 574 1551 l 1
 219 993 235 320 570 -214 c 1
 421 -214 l 1
EndSplineSet
EndChar

StartChar: parenright
Encoding: 41 41 69
Width: 626
VWidth: 0
GlyphClass: 2
Flags: HW
LayerCount: 2
UndoRedoHistory
Layer: 1
Undoes
EndUndoes
Redoes
EndRedoes
EndUndoRedoHistory
Fore
SplineSet
56 -214 m 1
 391 320 407 993 52 1551 c 1
 199 1551 l 1
 578 956 566 355 205 -214 c 1
 56 -214 l 1
EndSplineSet
EndChar

StartChar: percent
Encoding: 37 37 70
Width: 1968
VWidth: 0
GlyphClass: 2
Flags: HW
HStem: -27 113<1426.5 1467.5> -5 21<440 594 594 594> 622 113<1419.5 1515> 686 113<450 547.5> 1335 112<498.5 542.5>
VStem: 168 144<1037.5 1138.5 991 1152> 734 143<996 1127.5> 1097 144<324.5 423.5 292 439.5> 1645 144<284 430.5>
LayerCount: 2
UndoRedoHistory
Layer: 1
Undoes
EndUndoes
Redoes
EndRedoes
EndUndoRedoHistory
Fore
SplineSet
520 686 m 0
 344 686 237 783 192 915 c 0
 176 961 168 1011 168 1064 c 0
 168 1240 253 1363 377 1418 c 0
 421 1438 471 1447 526 1447 c 0
 753 1447 877 1294 877 1068 c 0
 877 892 791 772 668 716 c 0
 624 696 575 686 520 686 c 0
1441 -27 m 0
 1272 -27 1167 70 1121 202 c 0
 1105 248 1097 298 1097 351 c 0
 1097 528 1182 649 1303 705 c 0
 1345 725 1393 735 1446 735 c 0
 1665 735 1789 582 1789 356 c 0
 1789 180 1703 59 1583 3 c 0
 1541 -17 1494 -27 1441 -27 c 0
524 799 m 0
 670 799 734 923 734 1069 c 0
 734 1186 695 1273 618 1314 c 0
 592 1328 560 1335 525 1335 c 0
 377 1335 312 1212 312 1065 c 0
 312 917 376 799 524 799 c 0
1444 86 m 0
 1585 86 1645 211 1645 357 c 0
 1645 504 1585 622 1445 622 c 0
 1303 622 1241 497 1241 350 c 0
 1241 234 1279 148 1353 107 c 0
 1378 93 1409 86 1444 86 c 0
440 -5 m 1
 1340 1436 l 1
 1489 1436 l 1
 594 -5 l 1
 440 -5 l 1
EndSplineSet
EndChar

StartChar: period
Encoding: 46 46 71
Width: 540
VWidth: 0
GlyphClass: 2
Flags: HW
HStem: -16 211<225 278>
VStem: 144 215<61.5 117.5 56 123>
LayerCount: 2
UndoRedoHistory
Layer: 1
Undoes
EndUndoes
Redoes
EndRedoes
EndUndoRedoHistory
Fore
SplineSet
251 -16 m 0
 182 -16 144 33 144 90 c 0
 144 156 198 195 252 195 c 0
 321 195 359 146 359 89 c 0
 359 23 305 -16 251 -16 c 0
EndSplineSet
EndChar

StartChar: plus
Encoding: 43 43 72
Width: 1233
VWidth: 0
GlyphClass: 2
Flags: HW
HStem: 675 139<120 541 120 544 692 1113>
VStem: 541 149<202 675 202 675>
LayerCount: 2
UndoRedoHistory
Layer: 1
Undoes
EndUndoes
Redoes
EndRedoes
EndUndoRedoHistory
Fore
SplineSet
541 202 m 1
 541 675 l 1
 120 675 l 1
 120 814 l 1
 544 814 l 1
 544 1282 l 1
 692 1282 l 1
 692 814 l 1
 1113 814 l 1
 1113 675 l 1
 690 675 l 1
 690 202 l 1
 541 202 l 1
EndSplineSet
EndChar

StartChar: q
Encoding: 113 113 73
Width: 1181
VWidth: 0
GlyphClass: 2
Flags: HW
HStem: -22 136<453 578> 912 136<537 689.5> 1006 20
VStem: 100 170 891 164
LayerCount: 2
UndoRedoHistory
Layer: 1
Undoes
EndUndoes
Redoes
EndRedoes
EndUndoRedoHistory
Fore
SplineSet
995 -519 m 2
 942 -547 841 -523 841 -406 c 2
 841 153 l 1
 765 28 646 -22 510 -22 c 0
 270 -22 102 162 102 438 c 0
 102 820 324 1048 656 1048 c 0
 785 1048 925 1002 1005 950 c 1
 1005 -355 l 1
 1257 -221 l 1
 1329 -343 l 1
 995 -519 l 2
531 114 m 0
 735 114 841 273 841 476 c 2
 841 877 l 1
 801 889 726 912 653 912 c 0
 421 912 272 734 272 448 c 0
 272 248 375 114 531 114 c 0
EndSplineSet
EndChar

StartChar: question
Encoding: 63 63 74
Width: 1025
VWidth: 0
GlyphClass: 2
Flags: HW
HStem: 0 211<392 445> 1330 153
VStem: 311 213<77.5 133.5 72 139> 349 125<368 523 368 549> 716 169<957 1198>
LayerCount: 2
UndoRedoHistory
Layer: 1
Undoes
EndUndoes
Redoes
EndRedoes
EndUndoRedoHistory
Fore
SplineSet
349 368 m 1
 349 730 716 789 716 1125 c 0
 716 1271 595 1328 461 1330 c 0
 361 1332 252 1305 176 1262 c 1
 176 1413 l 1
 256 1452 351 1483 457 1483 c 0
 734 1483 885 1338 885 1133 c 0
 885 760 474 678 474 368 c 1
 349 368 l 1
418 0 m 0
 349 0 311 49 311 106 c 0
 311 172 365 211 419 211 c 0
 487 211 524 162 524 105 c 0
 524 39 472 0 418 0 c 0
EndSplineSet
EndChar

StartChar: quotedbl
Encoding: 34 34 75
Width: 720
VWidth: 0
GlyphClass: 2
Flags: HW
HStem: 931 525<150 150 150 259 439 547 439 439>
VStem: 114 455<1456 1456>
LayerCount: 2
UndoRedoHistory
Layer: 1
Undoes
EndUndoes
Redoes
EndRedoes
EndUndoRedoHistory
Fore
SplineSet
150 931 m 1
 114 1456 l 1
 281 1456 l 1
 259 931 l 1
 150 931 l 1
439 931 m 1
 403 1456 l 1
 569 1456 l 1
 547 931 l 1
 439 931 l 1
EndSplineSet
EndChar

StartChar: quotesingle
Encoding: 39 39 76
Width: 554
VWidth: 0
GlyphClass: 2
Flags: HW
HStem: 989 462<212 212 212 342>
VStem: 176 166<989 1451> 212 130<989 1451>
LayerCount: 2
UndoRedoHistory
Layer: 1
Undoes
EndUndoes
Redoes
EndRedoes
EndUndoRedoHistory
Fore
SplineSet
212 989 m 1
 176 1451 l 1
 342 1451 l 1
 342 989 l 1
 212 989 l 1
EndSplineSet
EndChar

StartChar: r
Encoding: 114 114 77
Width: 798
VWidth: 0
GlyphClass: 2
Flags: HW
HStem: 0 21<199 199 199 363> 907 141<568 668.5> 1005 20
VStem: 185 164
AnchorPoint: "top" 487 1026 basechar 0
AnchorPoint: "bottom" 338 -3 basechar 0
LayerCount: 2
UndoRedoHistory
Layer: 1
Undoes
EndUndoes
Redoes
EndRedoes
EndUndoRedoHistory
Fore
SplineSet
199 0 m 1
 199 693 l 2
 199 809 126 895 76 937 c 1
 217 1019 l 1
 265 977 311 920 326 830 c 1
 378 958 505 1048 631 1048 c 0
 714 1048 749 1038 785 1028 c 1
 771 883 l 1
 754 889 711 907 626 907 c 0
 482 907 363 772 363 537 c 2
 363 0 l 1
 199 0 l 1
EndSplineSet
EndChar

StartChar: s
Encoding: 115 115 78
Width: 876
VWidth: 0
GlyphClass: 2
Flags: HW
HStem: -22 136<399 501 399 557> 912 136<401 502.5>
VStem: 111 164<726.5 818.5 726.5 864> 642 162<212 319.5>
AnchorPoint: "top" 500 1026 basechar 0
AnchorPoint: "bottom" 501 0 basechar 0
LayerCount: 2
UndoRedoHistory
Layer: 1
Undoes
EndUndoes
Redoes
EndRedoes
EndUndoRedoHistory
Fore
SplineSet
462 -22 m 0
 296 -22 166 41 105 78 c 1
 156 208 l 1
 251 154 346 114 452 114 c 0
 550 114 642 157 642 267 c 0
 642 372 528 411 388 473 c 0
 248 534 111 598 111 773 c 0
 111 955 267 1048 445 1048 c 0
 587 1048 697 1006 769 965 c 1
 722 833 l 1
 660 868 548 912 457 912 c 0
 345 912 275 862 275 775 c 0
 275 678 375 647 523 581 c 1
 673 519 804 450 804 279 c 0
 804 85 652 -22 462 -22 c 0
EndSplineSet
EndChar

StartChar: semicolon
Encoding: 59 59 79
Width: 540
VWidth: 0
GlyphClass: 2
Flags: HW
HStem: 816 210<159 376 159 376>
VStem: 159 217<816 1026 816 1026>
LayerCount: 2
UndoRedoHistory
Layer: 1
Undoes
EndUndoes
Redoes
EndRedoes
EndUndoRedoHistory
Fore
SplineSet
100 -256 m 1
 206 207 l 1
 394 207 l 1
 231 -256 l 1
 100 -256 l 1
159 816 m 1
 159 1026 l 1
 376 1026 l 1
 376 816 l 1
 159 816 l 1
EndSplineSet
EndChar

StartChar: seven
Encoding: 55 55 80
Width: 1234
VWidth: 0
GlyphClass: 2
Flags: HW
HStem: 0 21<351 351 351 537> 1311 145<153 917 153 1109>
LayerCount: 2
UndoRedoHistory
Layer: 1
Undoes
EndUndoes
Redoes
EndRedoes
EndUndoRedoHistory
Fore
SplineSet
351 0 m 1
 917 1311 l 1
 153 1311 l 1
 153 1456 l 1
 1109 1456 l 1
 1109 1365 l 1
 537 0 l 1
 351 0 l 1
EndSplineSet
EndChar

StartChar: six
Encoding: 54 54 81
Width: 1225
VWidth: 0
GlyphClass: 2
Flags: HW
HStem: -22 142<539 735.5 539 773.5> 810 136<608 734.5> 1351 133<869 903>
VStem: 934 167<356.5 555.5>
LayerCount: 2
UndoRedoHistory
Layer: 1
Undoes
EndUndoes
Redoes
EndRedoes
EndUndoRedoHistory
Fore
SplineSet
649 -22 m 0
 305 -22 161 240 142 501 c 0
 114 890 277 1391 869 1484 c 1
 903 1351 l 1
 566 1304 367 1072 316 768 c 1
 381 890 555 946 661 946 c 0
 918 946 1101 735 1101 464 c 0
 1101 175 898 -22 649 -22 c 0
647 120 m 0
 824 120 934 254 934 459 c 0
 934 652 837 810 632 810 c 0
 447 810 309 660 309 469 c 0
 309 292 431 120 647 120 c 0
EndSplineSet
EndChar

StartChar: slash
Encoding: 47 47 82
Width: 853
VWidth: 0
GlyphClass: 2
Flags: HW
HStem: 0 21<31 31 31 194> 1436 20<656 823 823 823>
LayerCount: 2
UndoRedoHistory
Layer: 1
Undoes
EndUndoes
Redoes
EndRedoes
EndUndoRedoHistory
Fore
SplineSet
31 0 m 1
 656 1456 l 1
 823 1456 l 1
 194 0 l 1
 31 0 l 1
EndSplineSet
EndChar

StartChar: t
Encoding: 116 116 84
Width: 820
VWidth: 0
GlyphClass: 2
Flags: HW
HStem: -8 127<515 587.5> 919 107<30 233 233 233 394 728>
VStem: 233 161<300 919>
AnchorPoint: "top" 500 1026 basechar 0
AnchorPoint: "bottom" 501 0 basechar 0
LayerCount: 2
UndoRedoHistory
Layer: 1
Undoes
EndUndoes
Redoes
EndRedoes
EndUndoRedoHistory
Fore
SplineSet
559 -8 m 0
 333 -8 233 84 233 300 c 2
 233 919 l 1
 30 919 l 1
 30 1026 l 1
 238 1026 l 1
 238 1336 l 1
 394 1366 l 1
 394 1026 l 1
 728 1026 l 1
 728 919 l 1
 394 919 l 1
 397 298 l 2
 397 173 452 119 578 119 c 0
 624 119 724 140 771 158 c 1
 790 35 l 1
 727 13 616 -8 559 -8 c 0
EndSplineSet
EndChar

StartChar: three
Encoding: 51 51 85
Width: 1226
VWidth: 0
GlyphClass: 2
Flags: HW
HStem: -23 164 683 161 1322 161
VStem: 874 187 909 188
LayerCount: 2
UndoRedoHistory
Layer: 1
Undoes
EndUndoes
Redoes
EndRedoes
EndUndoRedoHistory
Fore
SplineSet
603 -23 m 0
 379 -23 216 72 203 80 c 1
 256 231 l 1
 301 207 435 141 592 141 c 0
 778 141 909 241 909 409 c 0
 909 604 757 686 515 684 c 2
 443 683 l 1
 441 844 l 1
 505 844 l 2
 737 844 874 904 874 1106 c 0
 874 1251 733 1322 585 1322 c 0
 421 1322 312 1250 245 1189 c 1
 158 1316 l 1
 266 1429 409 1483 607 1483 c 0
 835 1483 1062 1355 1062 1110 c 0
 1062 938 970 810 798 766 c 1
 988 727 1098 593 1098 404 c 0
 1098 138 878 -23 603 -23 c 0
EndSplineSet
EndChar

StartChar: two
Encoding: 50 50 86
Width: 1244
VWidth: 0
GlyphClass: 2
Flags: HW
HStem: 0 176 1301 180
VStem: 831 208
LayerCount: 2
UndoRedoHistory
Layer: 1
Undoes
EndUndoes
Redoes
EndRedoes
EndUndoRedoHistory
Fore
SplineSet
599 1482 m 0
 853 1482 1032 1311 1039 1053 c 0
 1045 840 952 677 762 485 c 2
 457 176 l 1
 1033 176 l 1
 1033 0 l 1
 203 0 l 1
 203 165 l 1
 624 613 l 2
 784 783 839 909 831 1050 c 1
 824 1204 731 1301 584 1301 c 0
 387 1301 222 1174 222 1174 c 2
 154 1340 l 1
 154 1340 329 1482 599 1482 c 0
EndSplineSet
EndChar

StartChar: u
Encoding: 117 117 87
Width: 1216
VWidth: 0
GlyphClass: 2
Flags: HW
HStem: -22 136<484 598> -3 138 1006 20<272 272 843 1007 843 843>
VStem: 161 165 844 164
AnchorPoint: "top" 612 1026 basechar 0
AnchorPoint: "bottom" 599 0 basechar 0
AnchorPoint: "ogonek" 959 0 basechar 0
LayerCount: 2
UndoRedoHistory
Layer: 1
Undoes
EndUndoes
Redoes
EndRedoes
EndUndoRedoHistory
Fore
SplineSet
522 -22 m 0
 336 -22 152 80 160 365 c 2
 166 582 l 2
 175 901 107 1000 107 1000 c 1
 272 1026 l 1
 272 1026 340 941 331 595 c 2
 325 365 l 2
 320 167 426 114 542 114 c 0
 707 114 843 259 843 482 c 2
 843 1026 l 1
 1007 1026 l 1
 1007 328 l 2
 1007 182 1026 121 1152 121 c 1
 1123 -14 l 1
 986 -14 892 32 862 161 c 1
 787 37 674 -22 522 -22 c 0
EndSplineSet
EndChar

StartChar: underscore
Encoding: 95 95 88
Width: 977
VWidth: 0
GlyphClass: 2
Flags: HW
HStem: -273 128<-5 978 -5 978>
LayerCount: 2
UndoRedoHistory
Layer: 1
Undoes
EndUndoes
Redoes
EndRedoes
EndUndoRedoHistory
Fore
SplineSet
-5 -273 m 1
 -5 -145 l 1
 978 -145 l 1
 978 -273 l 1
 -5 -273 l 1
EndSplineSet
EndChar

StartChar: v
Encoding: 118 118 90
Width: 1040
VWidth: 0
GlyphClass: 2
Flags: HW
HStem: 0 21<438 438 438 606> 1006 20<16 198 198 198 847 1024 1024 1024>
LayerCount: 2
UndoRedoHistory
Layer: 1
Undoes
EndUndoes
Redoes
EndRedoes
EndUndoRedoHistory
Fore
SplineSet
438 0 m 1
 16 1026 l 1
 198 1026 l 1
 472 336 l 2
 491 290 514 217 530 163 c 1
 561 264 574 309 586 336 c 1
 847 1026 l 1
 1024 1026 l 1
 606 0 l 1
 438 0 l 1
EndSplineSet
EndChar

StartChar: w
Encoding: 119 119 91
Width: 1664
VWidth: 0
GlyphClass: 2
Flags: HW
HStem: 0 21<391 553 553 553 1111 1271 1271 1271> 1006 20<26 202 26 26 767 926 767 767 1470 1639 1470 1470>
AnchorPoint: "top" 843 1024 basechar 0
AnchorPoint: "bottom" 840 0 basechar 0
LayerCount: 2
UndoRedoHistory
Layer: 1
Undoes
EndUndoes
Redoes
EndRedoes
EndUndoRedoHistory
Fore
SplineSet
391 0 m 1
 26 1026 l 1
 202 1026 l 1
 451 284 l 2
 461 255 470 217 480 186 c 1
 490 214 499 249 511 276 c 1
 767 1026 l 1
 926 1026 l 1
 1167 286 l 2
 1177 258 1186 219 1196 189 c 1
 1209 219 1218 255 1230 287 c 1
 1470 1026 l 1
 1639 1026 l 1
 1271 0 l 1
 1111 0 l 1
 841 831 l 1
 553 0 l 1
 391 0 l 1
EndSplineSet
EndChar

StartChar: x
Encoding: 120 120 92
Width: 1063
VWidth: 0
GlyphClass: 2
Flags: HW
HStem: 0 21<48 48 48 238 814 814 814 1015> 1006 20<67 269 269 269 823 1002 1002 1002>
LayerCount: 2
UndoRedoHistory
Layer: 1
Undoes
EndUndoes
Redoes
EndRedoes
EndUndoRedoHistory
Fore
SplineSet
48 0 m 1
 440 514 l 1
 67 1026 l 1
 269 1026 l 1
 545 626 l 1
 823 1026 l 1
 1002 1026 l 1
 632 518 l 1
 1015 0 l 1
 814 0 l 1
 530 408 l 1
 238 0 l 1
 48 0 l 1
EndSplineSet
EndChar

StartChar: y
Encoding: 121 121 93
Width: 1204
VWidth: 0
GlyphClass: 2
Flags: HW
HStem: -494 137<506.5 641.5 498.5 698.5> -22 136<525 652> 1006 20<291 291 876 1040 876 876>
VStem: 161 165 848 164
AnchorPoint: "top" 544 1024 basechar 0
LayerCount: 2
UndoRedoHistory
Layer: 1
Undoes
EndUndoes
Redoes
EndRedoes
EndUndoRedoHistory
Fore
SplineSet
555 -494 m 0
 458 -494 328 -470 227 -433 c 1
 246 -280 l 1
 338 -326 456 -357 541 -357 c 0
 742 -357 876 -232 876 -44 c 2
 876 116 l 1
 803 34 701 -22 559 -22 c 0
 373 -22 171 80 179 365 c 2
 185 582 l 2
 194 901 126 1000 126 1000 c 1
 291 1026 l 1
 291 1026 359 941 350 595 c 2
 344 365 l 2
 339 167 467 114 583 114 c 0
 741 114 876 230 876 427 c 2
 876 1026 l 1
 1040 1026 l 1
 1040 -23 l 2
 1040 -306 842 -494 555 -494 c 0
EndSplineSet
EndChar

StartChar: z
Encoding: 122 122 94
Width: 968
VWidth: 0
GlyphClass: 2
Flags: HW
HStem: 0 134<305 906 305 906> 891 135<106 666 106 889>
AnchorPoint: "top" 506 1024 basechar 0
AnchorPoint: "bottom" 555 0 basechar 0
LayerCount: 2
UndoRedoHistory
Layer: 1
Undoes
EndUndoes
Redoes
EndRedoes
EndUndoRedoHistory
Fore
SplineSet
80 0 m 1
 80 89 l 1
 666 891 l 1
 106 891 l 1
 106 1026 l 1
 889 1026 l 1
 889 939 l 1
 305 134 l 1
 906 134 l 1
 906 0 l 1
 80 0 l 1
EndSplineSet
EndChar

StartChar: zero
Encoding: 48 48 95
Width: 1223
VWidth: 0
GlyphClass: 2
Flags: HW
HStem: -25 152<475.5 737.5 475.5 790> 1331 152<484.5 748>
VStem: 116 184<582.5 863 582.5 922.5> 923 184<591 869>
LayerCount: 2
UndoRedoHistory
Layer: 1
Undoes
EndUndoes
Redoes
EndRedoes
EndUndoRedoHistory
Fore
SplineSet
612 127 m 0
 863 127 923 456 923 726 c 0
 923 1012 884 1331 612 1331 c 0
 357 1331 300 1000 300 726 c 0
 300 439 339 127 612 127 c 0
607 -25 m 0
 232 -25 116 335 116 726 c 0
 116 1119 240 1483 612 1483 c 0
 1004 1483 1107 1133 1107 726 c 0
 1107 341 973 -25 607 -25 c 0
EndSplineSet
EndChar
